# xmcd CD database file
#
# Track frame offsets:
#	150
#	21170
#	46210
#
# Disc length: 835 seconds
#
# Revision: 0
# Processed by: cddbd v1.5.1PL0 Copyright (c) Steve Scherf et al.
# Submitted via: CDex 1.51
#
DISCID=1b034103
DTITLE=たかしまあきひこ＆エレクトリック・シェーバーズ - ｢ヒゲ｣のテーマ
DYEAR=1900
DGENRE=J-Pop
TTITLE0=｢ヒゲ｣のテーマ
TTITLE1=｢ヒゲ｣のテーマ(HIP BASS MIX)
TTITLE2=｢ヒゲ｣のテーマ(TECHNO BASS MIX)
EXTD=
EXTT0=
EXTT1=
EXTT2=
PLAYORDER=
